<?xml version="1.0" encoding="UTF-8" standalone="no"?>
<!DOCTYPE svg PUBLIC "-//W3C//DTD SVG 1.1//EN" "http://www.w3.org/Graphics/SVG/1.1/DTD/svg11.dtd">
<svg width="200" height="300" viewBox="0 0 320 500" version="1.1" xmlns="http://www.w3.org/2000/svg" xmlns:xlink="http://www.w3.org/1999/xlink" xml:space="preserve" xmlns:serif="http://www.serif.com/" style="fill-rule:evenodd;clip-rule:evenodd;stroke-linejoin:round;stroke-miterlimit:2;">
    <g id="layer1" transform="matrix(3.779527,0,0,3.779527,0.000007,0)">
        <rect id="rect847" x="10.322" y="16.107" width="3.837" height="46.523" style="fill:rgb(218,37,29);fill-rule:nonzero;"/>
        <rect id="rect847-2" x="63.364" y="16.107" width="3.837" height="46.523" style="fill:rgb(218,37,29);fill-rule:nonzero;"/>
        <rect id="rect847-0" x="63.364" y="69.178" width="3.837" height="46.523" style="fill:rgb(218,37,29);fill-rule:nonzero;"/>
        <rect id="rect847-28" x="10.322" y="69.178" width="3.837" height="46.523" style="fill:rgb(218,37,29);fill-rule:nonzero;"/>
        <rect id="rect847-8" x="15.5" y="10.941" width="46.523" height="3.837" style="fill:rgb(218,37,29);fill-rule:nonzero;"/>
        <rect id="rect847-03" x="36.843" y="16.16" width="3.837" height="46.523" style="fill:rgb(218,37,29);fill-rule:nonzero;"/>
        <rect id="rect847-83" x="36.843" y="68.826" width="3.837" height="46.523" style="fill:rgb(218,37,29);fill-rule:nonzero;"/>
        <rect id="rect847-8-3" x="15.5" y="117.035" width="46.523" height="3.837" style="fill:rgb(218,37,29);fill-rule:nonzero;"/>
        <rect id="rect847-8-9" x="15.574" y="63.986" width="19.855" height="3.837" style="fill:rgb(218,37,29);fill-rule:nonzero;"/>
        <rect id="rect847-8-9-0" x="42.095" y="63.986" width="19.855" height="3.837" style="fill:rgb(218,37,29);fill-rule:nonzero;"/>
        <path id="rect847-8-35" d="M16.076,18.029L19.701,16.773L34.927,60.734L31.301,61.99L16.076,18.029Z" style="fill:rgb(218,37,29);fill-rule:nonzero;"/>
        <path id="rect847-8-35-0" d="M61.447,18.029L57.822,16.773L42.597,60.734L46.222,61.99L61.447,18.029Z" style="fill:rgb(218,37,29);fill-rule:nonzero;"/>
        <path id="rect847-8-35-5" d="M16.076,113.782L19.701,115.037L34.927,71.076L31.301,69.821L16.076,113.782Z" style="fill:rgb(218,37,29);fill-rule:nonzero;"/>
        <path id="rect847-8-35-0-3" d="M61.447,113.782L57.822,115.037L42.597,71.076L46.222,69.821L61.447,113.782Z" style="fill:rgb(218,37,29);fill-rule:nonzero;"/>
        <path id="path1079" d="M76.804,118.917C76.804,120.04 75.881,120.963 74.759,120.963C74.759,120.963 74.759,120.963 74.759,120.963C73.636,120.963 72.713,120.04 72.713,118.917C72.713,117.795 73.636,116.871 74.759,116.871C74.759,116.871 74.759,116.871 74.759,116.871C75.881,116.871 76.804,117.795 76.804,118.917Z" style="fill:rgb(218,37,29);fill-rule:nonzero;"/>
        <g id="text1083-6" transform="matrix(1.255108,0,0,1.255108,-125.91301,-145.41286)">
            <path id="path1329" d="M121.586,204.749L121.084,204.749L120.179,203.76L119.932,203.995L119.932,204.749L119.552,204.749L119.552,201.604L119.932,201.604L119.932,203.621L121.03,202.491L121.509,202.491L120.46,203.534L121.586,204.749Z" style="fill-rule:nonzero;"/>
        </g>
        <g id="text1083-6-9" transform="matrix(1.255108,0,0,1.255108,-125.91301,-145.41286)">
            <rect id="path1332" x="134.076" y="201.604" width="0.38" height="3.145" style="fill-rule:nonzero;"/>
        </g>
        <g id="text1083-6-6" transform="matrix(1.255108,0,0,1.255108,-125.91301,-145.41286)">
            <path id="path1335" d="M143.58,204.749L143.2,204.749L143.2,203.463C143.2,203.366 143.196,203.273 143.186,203.182C143.178,203.092 143.16,203.02 143.132,202.966C143.101,202.908 143.056,202.864 142.998,202.835C142.94,202.805 142.857,202.79 142.748,202.79C142.641,202.79 142.535,202.817 142.428,202.871C142.322,202.924 142.215,202.991 142.109,203.073C142.113,203.104 142.116,203.14 142.119,203.182C142.122,203.223 142.123,203.263 142.123,203.303L142.123,204.749L141.743,204.749L141.743,203.463C141.743,203.363 141.738,203.269 141.729,203.18C141.721,203.09 141.703,203.018 141.674,202.964C141.643,202.906 141.599,202.863 141.541,202.835C141.483,202.805 141.399,202.79 141.29,202.79C141.187,202.79 141.082,202.816 140.977,202.867C140.873,202.918 140.769,202.983 140.666,203.063L140.666,204.748L140.286,204.748L140.286,202.491L140.666,202.491L140.666,202.742C140.784,202.643 140.902,202.566 141.019,202.511C141.138,202.456 141.264,202.428 141.397,202.428C141.551,202.428 141.681,202.461 141.787,202.525C141.895,202.59 141.975,202.68 142.028,202.794C142.182,202.665 142.322,202.572 142.448,202.515C142.575,202.457 142.71,202.428 142.855,202.428C143.102,202.428 143.285,202.504 143.402,202.655C143.521,202.804 143.58,203.014 143.58,203.283L143.58,204.749Z" style="fill-rule:nonzero;"/>
        </g>
        <g id="text1083-6-8" transform="matrix(1.255108,0,0,1.255108,-125.91301,-145.41286)">
            <path id="path1338" d="M121.824,136.763L121.444,136.763L121.444,135.478C121.444,135.374 121.438,135.277 121.426,135.187C121.414,135.095 121.392,135.024 121.359,134.973C121.326,134.916 121.277,134.875 121.214,134.848C121.15,134.819 121.068,134.805 120.967,134.805C120.863,134.805 120.755,134.831 120.642,134.882C120.529,134.933 120.42,134.999 120.316,135.078L120.316,136.764L119.936,136.764L119.936,133.619L120.316,133.619L120.316,134.757C120.435,134.658 120.558,134.582 120.684,134.526C120.811,134.471 120.941,134.443 121.074,134.443C121.318,134.443 121.504,134.517 121.632,134.664C121.76,134.811 121.824,135.022 121.824,135.298L121.824,136.763Z" style="fill-rule:nonzero;"/>
        </g>
        <g id="text1083-6-9-6" transform="matrix(1.255108,0,0,1.255108,-125.91301,-145.41286)">
            <path id="path1341" d="M134.88,134.128L134.452,134.128L134.452,133.734L134.88,133.734L134.88,134.128ZM134.856,136.764L134.476,136.764L134.476,134.506L134.856,134.506L134.856,136.764Z" style="fill-rule:nonzero;"/>
        </g>
        <g id="text1083-6-6-1" transform="matrix(1.255108,0,0,1.255108,-125.91301,-145.41286)">
            <path id="path1344" d="M143.09,134.128L142.662,134.128L142.662,133.734L143.09,133.734L143.09,134.128ZM143.066,136.818C143.066,137.082 142.999,137.282 142.864,137.416C142.729,137.551 142.549,137.618 142.322,137.618C142.268,137.618 142.197,137.613 142.108,137.602C142.021,137.591 141.947,137.578 141.888,137.562L141.888,137.2L141.908,137.2C141.946,137.215 141.996,137.232 142.06,137.251C142.124,137.269 142.187,137.279 142.248,137.279C142.345,137.279 142.423,137.265 142.482,137.238C142.541,137.212 142.586,137.171 142.615,137.117C142.645,137.063 142.664,136.998 142.672,136.921C142.681,136.846 142.686,136.753 142.686,136.644L142.686,134.825L142.215,134.825L142.215,134.506L143.066,134.506L143.066,136.818Z" style="fill-rule:nonzero;"/>
        </g>
        <g id="text1083-6-6-1-2" transform="matrix(1.255108,0,0,1.255108,-125.91301,-145.41286)">
            <path id="path1347" d="M117.078,164.844C117.078,165.226 116.992,165.507 116.818,165.686C116.644,165.866 116.377,165.955 116.015,165.955C115.896,165.955 115.778,165.946 115.664,165.929C115.551,165.913 115.439,165.889 115.328,165.858L115.328,165.47L115.348,165.47C115.41,165.494 115.509,165.524 115.644,165.559C115.778,165.595 115.913,165.614 116.048,165.614C116.177,165.614 116.284,165.598 116.369,165.567C116.454,165.536 116.52,165.493 116.567,165.438C116.614,165.385 116.648,165.322 116.668,165.248C116.688,165.174 116.699,165.091 116.699,164.999L116.699,164.793C116.584,164.885 116.474,164.953 116.369,164.999C116.265,165.044 116.133,165.066 115.971,165.066C115.701,165.066 115.487,164.969 115.328,164.775C115.171,164.58 115.092,164.305 115.092,163.95C115.092,163.756 115.119,163.589 115.173,163.449C115.228,163.308 115.303,163.186 115.397,163.083C115.484,162.988 115.591,162.914 115.716,162.861C115.842,162.807 115.966,162.78 116.09,162.78C116.221,162.78 116.33,162.794 116.418,162.821C116.506,162.846 116.6,162.886 116.698,162.94L116.723,162.843L117.078,162.843L117.078,164.844ZM116.699,164.48L116.699,163.249C116.597,163.203 116.503,163.171 116.416,163.152C116.329,163.132 116.243,163.122 116.157,163.122C115.948,163.122 115.784,163.192 115.664,163.332C115.544,163.472 115.484,163.675 115.484,163.942C115.484,164.196 115.528,164.388 115.617,164.518C115.706,164.649 115.854,164.714 116.06,164.714C116.17,164.714 116.281,164.693 116.391,164.652C116.503,164.609 116.606,164.551 116.699,164.48Z" style="fill-rule:nonzero;"/>
        </g>
        <g id="text1083-6-6-1-2-2" transform="matrix(1.255108,0,0,1.255108,-125.91301,-145.41286)">
            <g transform="matrix(0.210805,0,0,0.210805,101.564958,117.233533)">
                <g transform="matrix(30,0,0,30,194.629981,232.342406)">
                    <path d="M0.412,-0.281L0.412,-0.365L0.715,-0.365L0.715,-0.1C0.669,-0.062 0.621,-0.035 0.571,-0.016C0.522,0.003 0.471,0.012 0.419,0.012C0.349,0.012 0.285,-0.003 0.227,-0.033C0.17,-0.063 0.126,-0.107 0.097,-0.164C0.068,-0.221 0.053,-0.284 0.053,-0.354C0.053,-0.424 0.068,-0.489 0.097,-0.55C0.126,-0.61 0.168,-0.655 0.223,-0.684C0.277,-0.713 0.34,-0.728 0.412,-0.728C0.463,-0.728 0.51,-0.72 0.552,-0.703C0.594,-0.686 0.627,-0.663 0.65,-0.633C0.674,-0.603 0.692,-0.564 0.705,-0.516L0.619,-0.492C0.608,-0.529 0.595,-0.557 0.579,-0.578C0.563,-0.599 0.54,-0.616 0.511,-0.628C0.481,-0.641 0.448,-0.647 0.412,-0.647C0.369,-0.647 0.331,-0.64 0.3,-0.627C0.268,-0.614 0.243,-0.597 0.223,-0.575C0.204,-0.554 0.189,-0.53 0.178,-0.504C0.16,-0.46 0.151,-0.412 0.151,-0.36C0.151,-0.297 0.162,-0.243 0.184,-0.2C0.206,-0.157 0.238,-0.125 0.28,-0.104C0.322,-0.084 0.366,-0.073 0.414,-0.073C0.455,-0.073 0.495,-0.081 0.534,-0.097C0.573,-0.113 0.602,-0.13 0.623,-0.147L0.623,-0.281L0.412,-0.281Z" style="fill-rule:nonzero;"/>
                </g>
            </g>
        </g>
        <g transform="matrix(0.264583,0,0,0.264583,-2.242531,9.204354)">
            <g>
                <g transform="matrix(15,0,0,15,265.049534,436.221813)">
                    <path d="M0.547,-0.716L0.642,-0.716L0.642,-0.302C0.642,-0.23 0.633,-0.173 0.617,-0.131C0.601,-0.089 0.572,-0.054 0.529,-0.028C0.487,-0.001 0.431,0.012 0.362,0.012C0.295,0.012 0.24,0.001 0.197,-0.022C0.155,-0.046 0.124,-0.079 0.106,-0.123C0.088,-0.167 0.079,-0.226 0.079,-0.302L0.079,-0.716L0.173,-0.716L0.173,-0.303C0.173,-0.241 0.179,-0.195 0.191,-0.165C0.202,-0.136 0.222,-0.113 0.25,-0.097C0.278,-0.081 0.313,-0.073 0.354,-0.073C0.423,-0.073 0.473,-0.089 0.502,-0.121C0.532,-0.152 0.547,-0.213 0.547,-0.303L0.547,-0.716Z" style="fill-rule:nonzero;"/>
                </g>
                <g transform="matrix(15,0,0,15,275.882053,436.221813)">
                    <path d="M0.25,-0.116L0.25,-0.312L0.056,-0.312L0.056,-0.394L0.25,-0.394L0.25,-0.589L0.333,-0.589L0.333,-0.394L0.528,-0.394L0.528,-0.312L0.333,-0.312L0.333,-0.116L0.25,-0.116Z" style="fill-rule:nonzero;"/>
                </g>
                <g transform="matrix(15,0,0,15,284.641819,436.221813)">
                    <path d="M0.042,-0.353C0.042,-0.438 0.05,-0.506 0.068,-0.557C0.085,-0.609 0.111,-0.649 0.145,-0.677C0.18,-0.705 0.223,-0.719 0.275,-0.719C0.313,-0.719 0.347,-0.711 0.376,-0.696C0.405,-0.68 0.429,-0.658 0.448,-0.629C0.467,-0.6 0.481,-0.564 0.492,-0.522C0.503,-0.48 0.508,-0.424 0.508,-0.353C0.508,-0.269 0.5,-0.201 0.482,-0.15C0.465,-0.098 0.439,-0.058 0.405,-0.03C0.371,-0.002 0.327,0.012 0.275,0.012C0.206,0.012 0.152,-0.013 0.112,-0.062C0.065,-0.122 0.042,-0.219 0.042,-0.353ZM0.132,-0.353C0.132,-0.236 0.146,-0.157 0.173,-0.118C0.201,-0.08 0.235,-0.06 0.275,-0.06C0.315,-0.06 0.349,-0.08 0.377,-0.119C0.404,-0.158 0.418,-0.236 0.418,-0.353C0.418,-0.471 0.404,-0.549 0.377,-0.588C0.349,-0.627 0.315,-0.646 0.274,-0.646C0.234,-0.646 0.201,-0.629 0.177,-0.595C0.147,-0.551 0.132,-0.471 0.132,-0.353Z" style="fill-rule:nonzero;"/>
                </g>
                <g transform="matrix(15,0,0,15,292.984104,436.221813)">
                    <path d="M0.042,-0.353C0.042,-0.438 0.05,-0.506 0.068,-0.557C0.085,-0.609 0.111,-0.649 0.145,-0.677C0.18,-0.705 0.223,-0.719 0.275,-0.719C0.313,-0.719 0.347,-0.711 0.376,-0.696C0.405,-0.68 0.429,-0.658 0.448,-0.629C0.467,-0.6 0.481,-0.564 0.492,-0.522C0.503,-0.48 0.508,-0.424 0.508,-0.353C0.508,-0.269 0.5,-0.201 0.482,-0.15C0.465,-0.098 0.439,-0.058 0.405,-0.03C0.371,-0.002 0.327,0.012 0.275,0.012C0.206,0.012 0.152,-0.013 0.112,-0.062C0.065,-0.122 0.042,-0.219 0.042,-0.353ZM0.132,-0.353C0.132,-0.236 0.146,-0.157 0.173,-0.118C0.201,-0.08 0.235,-0.06 0.275,-0.06C0.315,-0.06 0.349,-0.08 0.377,-0.119C0.404,-0.158 0.418,-0.236 0.418,-0.353C0.418,-0.471 0.404,-0.549 0.377,-0.588C0.349,-0.627 0.315,-0.646 0.274,-0.646C0.234,-0.646 0.201,-0.629 0.177,-0.595C0.147,-0.551 0.132,-0.471 0.132,-0.353Z" style="fill-rule:nonzero;"/>
                </g>
                <g transform="matrix(15,0,0,15,301.326389,436.221813)">
                    <path d="M0.503,-0.084L0.503,-0L0.03,-0C0.03,-0.021 0.033,-0.042 0.041,-0.061C0.053,-0.093 0.072,-0.125 0.098,-0.156C0.125,-0.188 0.163,-0.224 0.213,-0.265C0.291,-0.328 0.344,-0.379 0.371,-0.416C0.398,-0.454 0.412,-0.489 0.412,-0.522C0.412,-0.557 0.4,-0.586 0.375,-0.61C0.35,-0.634 0.317,-0.646 0.277,-0.646C0.235,-0.646 0.201,-0.633 0.176,-0.608C0.15,-0.583 0.138,-0.547 0.137,-0.502L0.047,-0.512C0.053,-0.579 0.076,-0.63 0.117,-0.666C0.157,-0.701 0.211,-0.719 0.279,-0.719C0.348,-0.719 0.402,-0.7 0.442,-0.662C0.482,-0.624 0.502,-0.576 0.502,-0.52C0.502,-0.491 0.497,-0.463 0.485,-0.436C0.473,-0.408 0.454,-0.379 0.427,-0.348C0.399,-0.318 0.354,-0.276 0.291,-0.222C0.238,-0.178 0.204,-0.148 0.189,-0.132C0.174,-0.116 0.162,-0.1 0.152,-0.084L0.503,-0.084Z" style="fill-rule:nonzero;"/>
                </g>
                <g transform="matrix(15,0,0,15,309.668674,436.221813)">
                    <path d="M0.079,-0L0.079,-0.716L0.597,-0.716L0.597,-0.631L0.174,-0.631L0.174,-0.412L0.57,-0.412L0.57,-0.328L0.174,-0.328L0.174,-0.084L0.613,-0.084L0.613,-0L0.079,-0Z" style="fill-rule:nonzero;"/>
                </g>
            </g>
        </g>
        <g id="text1235" transform="matrix(1.255108,0,0,1.255108,-125.91301,-145.41286)">
            <path id="path1357" d="M133.579,122.782L132.774,122.782L132.774,122.27C132.702,122.319 132.605,122.388 132.481,122.477C132.361,122.563 132.243,122.632 132.128,122.684C131.994,122.75 131.839,122.804 131.664,122.847C131.489,122.893 131.284,122.916 131.048,122.916C130.615,122.916 130.248,122.772 129.947,122.486C129.646,122.199 129.495,121.833 129.495,121.388C129.495,121.024 129.572,120.73 129.727,120.506C129.885,120.279 130.109,120.102 130.399,119.973C130.691,119.843 131.043,119.756 131.453,119.71C131.863,119.664 132.303,119.63 132.774,119.607L132.774,119.482C132.774,119.298 132.741,119.146 132.675,119.026C132.612,118.905 132.52,118.811 132.4,118.742C132.285,118.676 132.147,118.631 131.986,118.608C131.826,118.586 131.658,118.574 131.483,118.574C131.271,118.574 131.034,118.603 130.773,118.66C130.512,118.715 130.242,118.795 129.964,118.901L129.921,118.901L129.921,118.079C130.079,118.036 130.307,117.989 130.605,117.937C130.904,117.886 131.198,117.86 131.487,117.86C131.826,117.86 132.12,117.889 132.369,117.946C132.622,118 132.84,118.095 133.024,118.23C133.204,118.362 133.342,118.533 133.437,118.742C133.531,118.951 133.579,119.211 133.579,119.521L133.579,122.782ZM132.774,121.599L132.774,120.261C132.527,120.275 132.236,120.297 131.9,120.325C131.568,120.354 131.304,120.396 131.109,120.45C130.876,120.516 130.688,120.619 130.545,120.76C130.401,120.898 130.33,121.088 130.33,121.332C130.33,121.608 130.413,121.816 130.579,121.956C130.746,122.094 131,122.163 131.341,122.163C131.625,122.163 131.885,122.108 132.12,121.999C132.355,121.887 132.573,121.754 132.774,121.599L132.774,121.599Z" style="fill-rule:nonzero;"/>
        </g>
        <g id="text1235-8" transform="matrix(1.255108,0,0,1.255108,-125.91301,-145.41286)">
            <path id="path1360" d="M106.831,143.872L106.788,143.872C106.699,143.846 106.583,143.82 106.44,143.794C106.296,143.766 106.17,143.751 106.061,143.751C105.714,143.751 105.462,143.829 105.304,143.984C105.149,144.136 105.071,144.413 105.071,144.814L105.071,144.978L106.53,144.978L106.53,145.658L105.097,145.658L105.097,149.784L104.288,149.784L104.288,145.658L103.742,145.658L103.742,144.978L104.288,144.978L104.288,144.819C104.288,144.248 104.43,143.81 104.714,143.506C104.998,143.199 105.409,143.046 105.945,143.046C106.126,143.046 106.288,143.054 106.431,143.071C106.578,143.089 106.711,143.109 106.831,143.132L106.831,143.872Z" style="fill-rule:nonzero;"/>
        </g>
        <g id="text1235-1" transform="matrix(1.255108,0,0,1.255108,-125.91301,-145.41286)">
            <path id="path1363" d="M160.204,147.211C160.204,147.613 160.147,147.974 160.032,148.295C159.92,148.617 159.768,148.886 159.576,149.104C159.373,149.331 159.149,149.502 158.905,149.617C158.661,149.728 158.393,149.784 158.1,149.784C157.828,149.784 157.59,149.751 157.386,149.685C157.182,149.622 156.981,149.536 156.783,149.427L156.732,149.651L155.975,149.651L155.975,142.955L156.784,142.955L156.784,145.348C157.01,145.161 157.251,145.009 157.506,144.892C157.762,144.771 158.049,144.711 158.367,144.711C158.935,144.711 159.383,144.929 159.71,145.365C160.04,145.801 160.204,146.416 160.204,147.211L160.204,147.211ZM159.37,147.233C159.37,146.659 159.275,146.224 159.086,145.929C158.896,145.63 158.591,145.481 158.169,145.481C157.934,145.481 157.696,145.533 157.455,145.636C157.214,145.737 156.99,145.867 156.783,146.028L156.783,148.782C157.013,148.885 157.209,148.957 157.373,148.997C157.539,149.037 157.727,149.057 157.937,149.057C158.384,149.057 158.734,148.911 158.987,148.618C159.242,148.323 159.37,147.861 159.37,147.233L159.37,147.233Z" style="fill-rule:nonzero;"/>
        </g>
        <g id="text1235-2" transform="matrix(1.255108,0,0,1.255108,-125.91301,-145.41286)">
            <path id="path1366" d="M160.039,190.826C159.769,190.956 159.512,191.056 159.269,191.128C159.028,191.199 158.771,191.235 158.498,191.235C158.151,191.235 157.833,191.185 157.543,191.085C157.253,190.981 157.005,190.826 156.799,190.62C156.589,190.413 156.427,190.152 156.312,189.837C156.198,189.521 156.14,189.152 156.14,188.731C156.14,187.945 156.355,187.328 156.786,186.88C157.219,186.433 157.79,186.209 158.498,186.209C158.774,186.209 159.043,186.248 159.307,186.325C159.574,186.403 159.818,186.497 160.039,186.609L160.039,187.509L159.996,187.509C159.749,187.317 159.494,187.169 159.23,187.065C158.969,186.962 158.713,186.911 158.464,186.911C158.005,186.911 157.642,187.065 157.375,187.375C157.111,187.682 156.979,188.134 156.979,188.731C156.979,189.31 157.108,189.756 157.367,190.069C157.628,190.379 157.993,190.534 158.464,190.534C158.627,190.534 158.794,190.512 158.963,190.469C159.132,190.426 159.284,190.37 159.419,190.301C159.537,190.241 159.647,190.178 159.751,190.112C159.854,190.043 159.936,189.984 159.996,189.936L160.039,189.936L160.039,190.826Z" style="fill-rule:nonzero;"/>
        </g>
        <g id="text1235-3" transform="matrix(1.255108,0,0,1.255108,-125.91301,-145.41286)">
            <path id="path1369" d="M107.468,188.804L103.927,188.804C103.927,189.099 103.971,189.358 104.06,189.579C104.149,189.797 104.271,189.976 104.426,190.116C104.575,190.254 104.752,190.357 104.955,190.426C105.162,190.495 105.388,190.529 105.635,190.529C105.962,190.529 106.291,190.465 106.621,190.336C106.953,190.204 107.19,190.075 107.331,189.949L107.374,189.949L107.374,190.831C107.101,190.945 106.823,191.042 106.539,191.119C106.255,191.196 105.956,191.235 105.644,191.235C104.846,191.235 104.224,191.02 103.776,190.59C103.329,190.157 103.105,189.543 103.105,188.748C103.105,187.962 103.319,187.338 103.746,186.876C104.176,186.414 104.742,186.183 105.441,186.183C106.09,186.183 106.589,186.373 106.939,186.751C107.292,187.13 107.468,187.668 107.468,188.365L107.468,188.804ZM106.681,188.184C106.678,187.76 106.571,187.431 106.358,187.199C106.149,186.967 105.829,186.85 105.398,186.85C104.965,186.85 104.62,186.978 104.361,187.233C104.106,187.489 103.961,187.806 103.927,188.184L106.681,188.184Z" style="fill-rule:nonzero;"/>
        </g>
        <g id="text1235-6" transform="matrix(1.255108,0,0,1.255108,-125.91301,-145.41286)">
            <path id="path1372" d="M133.468,219.351L132.659,219.351L132.659,218.847C132.427,219.048 132.184,219.204 131.932,219.316C131.679,219.428 131.405,219.484 131.11,219.484C130.536,219.484 130.08,219.263 129.742,218.821C129.406,218.38 129.238,217.767 129.238,216.984C129.238,216.577 129.296,216.214 129.41,215.895C129.528,215.577 129.686,215.306 129.884,215.082C130.079,214.864 130.305,214.698 130.564,214.583C130.825,214.468 131.094,214.411 131.372,214.411C131.625,214.411 131.849,214.438 132.044,214.493C132.239,214.544 132.444,214.626 132.659,214.738L132.659,212.655L133.468,212.655L133.468,219.351ZM132.659,218.167L132.659,215.409C132.441,215.312 132.246,215.244 132.074,215.207C131.902,215.17 131.714,215.151 131.51,215.151C131.057,215.151 130.704,215.309 130.452,215.624C130.199,215.94 130.073,216.387 130.073,216.967C130.073,217.538 130.17,217.972 130.366,218.271C130.561,218.566 130.873,218.714 131.304,218.714C131.533,218.714 131.766,218.664 132.001,218.563C132.236,218.46 132.455,218.328 132.659,218.167Z" style="fill-rule:nonzero;"/>
        </g>
    </g>
</svg>
